<?xml version="1.0" standalone="no"?>
<!DOCTYPE svg PUBLIC "-//W3C//DTD SVG 20010904//EN"
 "http://www.w3.org/TR/2001/REC-SVG-20010904/DTD/svg10.dtd">
<svg version="1.0" xmlns="http://www.w3.org/2000/svg"
 width="1500.000000pt" height="1500.000000pt" viewBox="0 0 1500.000000 1500.000000"
 preserveAspectRatio="xMidYMid meet">
<metadata>
Created by potrace 1.14, written by Peter Selinger 2001-2017
</metadata>
<g transform="translate(0.000000,1500.000000) scale(0.100000,-0.100000)"
fill="#000000" stroke="none">
<path d="M7635 13470 c-55 -5 -120 -13 -145 -20 -25 -6 -126 -15 -225 -20
-197 -10 -277 -23 -405 -71 -47 -17 -143 -51 -215 -76 -140 -48 -272 -112
-301 -145 -17 -18 -12 -17 41 7 132 59 207 76 89 20 -40 -18 -96 -54 -126 -78
-30 -25 -81 -59 -114 -77 -131 -73 -282 -181 -406 -292 -137 -123 -423 -466
-404 -485 3 -3 38 30 78 73 252 274 436 445 596 552 157 106 270 155 386 170
33 4 61 12 63 19 8 23 -94 36 -167 21 -33 -7 -34 -7 -15 8 69 53 337 153 360
134 16 -14 72 6 85 31 8 13 6 20 -7 27 -15 9 -14 10 3 15 10 3 82 16 159 29
124 20 172 23 413 22 149 -1 272 2 272 6 0 10 -68 56 -110 73 -34 15 -30 15
95 16 310 2 478 -46 755 -214 112 -68 184 -105 205 -105 14 0 14 3 1 29 -9 16
-29 40 -46 54 -50 43 -34 41 53 -6 308 -163 497 -359 592 -610 32 -86 63 -147
74 -147 23 0 27 87 6 155 -8 27 -12 51 -10 53 14 14 95 -203 110 -295 3 -22
13 -49 20 -60 13 -16 14 -10 15 50 0 118 -76 307 -151 370 -20 18 -59 66 -87
107 -56 84 -166 196 -258 264 -99 74 -327 177 -425 192 -24 4 -80 27 -123 52
-113 63 -195 99 -309 133 -108 31 -197 35 -422 19z"/>
<path d="M7344 13196 c-168 -28 -362 -88 -530 -166 -106 -49 -276 -150 -367
-218 -78 -59 -159 -133 -153 -140 3 -2 49 27 103 66 127 90 234 151 358 206
299 131 515 186 790 201 93 5 120 3 173 -13 66 -21 76 -18 40 14 -60 53 -77
58 -208 60 -69 2 -162 -3 -206 -10z"/>
<path d="M7480 12833 c-30 -2 -59 -8 -64 -14 -6 -6 -5 -9 5 -9 7 -1 59 -5 114
-10 94 -8 153 -25 335 -95 58 -22 53 0 -10 40 -92 58 -256 96 -380 88z"/>
<path d="M8186 12821 c5 -5 41 -26 79 -47 66 -36 219 -136 312 -206 24 -17 46
-28 50 -25 10 11 -90 103 -167 152 -113 74 -318 167 -274 126z"/>
<path d="M6675 12810 c-16 -4 -41 -13 -55 -19 -22 -10 -21 -11 15 -6 22 3 86
8 143 12 56 3 105 10 108 15 6 10 -170 9 -211 -2z"/>
<path d="M6963 12580 c-193 -26 -469 -133 -563 -218 -45 -41 -44 -59 1 -23 44
34 171 92 276 126 164 54 306 70 601 70 138 0 252 1 252 2 0 2 -19 13 -42 25
-40 22 -55 23 -253 25 -115 0 -238 -3 -272 -7z"/>
<path d="M6170 12467 c-77 -32 -174 -93 -221 -140 -22 -22 -38 -42 -35 -44 2
-2 30 16 63 40 55 42 197 127 211 127 4 0 30 9 57 20 50 19 50 19 15 19 -19 0
-60 -10 -90 -22z"/>
<path d="M5622 12405 c-55 -62 -194 -311 -220 -395 -11 -32 -23 -105 -40 -235
-5 -35 -12 -50 -22 -50 -19 0 -54 -151 -75 -324 -18 -149 -21 -592 -5 -831 17
-263 46 -607 55 -667 l6 -32 -70 6 c-67 6 -70 5 -96 -23 -73 -79 -96 -165
-102 -389 -4 -169 -3 -186 21 -278 72 -279 238 -535 436 -672 38 -27 52 -30
126 -32 76 -2 109 6 84 22 -5 3 -10 14 -10 24 0 11 -44 57 -105 110 -215 187
-351 387 -417 609 -20 68 -23 99 -23 262 0 250 20 310 102 310 43 0 58 -18 82
-96 20 -68 52 -124 72 -124 5 0 9 20 9 45 0 49 6 55 26 28 12 -17 13 -17 14 3
1 73 34 359 47 409 65 252 111 384 209 600 133 295 224 644 224 858 0 111 -14
122 -23 19 -21 -221 -77 -391 -306 -922 -64 -146 -113 -275 -130 -345 -36
-136 -56 -319 -48 -442 3 -51 2 -93 -2 -93 -20 0 -32 66 -50 267 -50 539 -55
646 -56 1123 0 465 4 546 29 537 10 -4 15 13 19 66 6 72 39 182 72 248 10 18
17 52 17 73 -2 28 7 56 29 95 44 78 106 169 146 214 32 36 43 67 24 67 -5 0
-27 -20 -49 -45z"/>
<path d="M7375 12293 c-79 -19 -210 -75 -390 -167 -283 -143 -376 -202 -407
-259 -16 -30 0 -33 30 -5 75 70 299 195 432 241 44 15 329 103 420 129 46 13
65 42 38 59 -14 9 -89 10 -123 2z"/>
<path d="M9460 12281 c0 -5 11 -34 25 -64 13 -31 33 -92 44 -137 11 -44 25
-89 30 -98 8 -15 11 -13 21 13 23 57 -23 211 -80 273 -21 23 -40 29 -40 13z"/>
<path d="M6715 12149 c-203 -69 -384 -181 -555 -342 -36 -34 -77 -71 -91 -82
-29 -23 -99 -123 -99 -142 0 -23 25 -14 42 15 9 15 67 77 130 137 111 109 230
201 338 262 88 50 271 121 330 128 79 9 85 12 70 30 -18 21 -93 18 -165 -6z"/>
<path d="M7700 12149 c-137 -10 -342 -44 -455 -75 -154 -43 -324 -108 -313
-120 3 -2 56 10 119 26 63 17 186 45 274 62 l160 32 438 1 c240 0 437 3 437 6
0 15 -125 60 -192 69 -84 11 -315 11 -468 -1z"/>
<path d="M8595 12022 c6 -6 71 -43 145 -83 74 -40 164 -91 200 -115 36 -23 66
-41 68 -39 10 10 -37 58 -91 94 -110 71 -359 182 -322 143z"/>
<path d="M9644 11940 c4 -14 13 -50 21 -79 39 -143 46 -365 25 -826 -11 -265
-24 -401 -65 -690 -47 -332 -54 -400 -53 -478 0 -74 1 -77 22 -71 11 3 28 16
36 27 32 47 143 156 171 167 98 41 150 -75 131 -290 -10 -115 -29 -190 -76
-292 -13 -29 -73 -163 -132 -298 -144 -327 -207 -433 -233 -391 -6 10 -11 5
-16 -20 -7 -29 -4 -36 21 -56 67 -54 144 -45 204 24 79 90 252 504 315 755 29
114 35 155 35 245 0 198 -32 306 -110 377 -62 55 -137 57 -212 4 -34 -24 -34
-25 -12 117 20 130 39 277 59 445 19 158 22 661 5 839 -19 207 -76 436 -121
491 l-21 25 6 -25z"/>
<path d="M6034 11775 c-43 -45 -81 -105 -67 -105 8 0 112 113 127 138 17 29
-21 9 -60 -33z"/>
<path d="M9050 11733 c0 -79 38 -393 65 -543 45 -241 95 -429 207 -770 38
-118 78 -242 88 -275 49 -165 94 -296 106 -312 12 -16 13 -8 14 59 0 42 -5
101 -11 130 -17 84 -84 310 -137 468 -89 262 -147 477 -207 770 -14 69 -40
190 -59 270 -18 80 -37 163 -40 185 -11 67 -26 77 -26 18z"/>
<path d="M8750 10764 c-155 -18 -377 -60 -500 -95 -161 -47 -255 -167 -149
-191 41 -10 155 -2 266 18 104 19 441 22 537 5 38 -6 93 -20 122 -30 29 -11
55 -16 58 -13 20 19 1 60 -104 214 -51 75 -123 104 -230 92z"/>
<path d="M6248 10700 c-97 -12 -141 -56 -230 -229 -55 -107 -49 -133 25 -94
48 25 150 52 262 69 80 12 142 14 305 8 388 -13 470 -6 470 46 0 103 -164 161
-550 195 -170 15 -198 16 -282 5z"/>
<path d="M7180 10372 c0 -4 18 -26 41 -47 51 -50 94 -133 108 -210 16 -85 13
-306 -4 -435 -19 -137 -64 -352 -110 -525 -85 -323 -93 -403 -46 -476 72 -114
275 -213 336 -165 20 16 20 16 -5 37 -14 12 -60 39 -104 61 -89 45 -172 117
-181 157 -4 17 8 78 30 162 33 125 78 338 122 574 26 142 25 539 -1 634 -22
80 -47 130 -88 176 -38 44 -98 79 -98 57z"/>
<path d="M8388 10179 c-105 -25 -237 -129 -287 -227 -36 -70 -24 -70 43 0 63
66 113 105 121 96 2 -2 0 -22 -6 -43 -6 -21 -9 -53 -6 -71 8 -47 52 -110 99
-141 35 -24 52 -28 108 -28 54 0 73 5 101 24 99 67 118 211 42 301 -18 21 -21
30 -10 30 29 0 155 -71 232 -132 142 -112 162 -119 130 -47 -34 74 -144 167
-268 225 -45 21 -66 24 -157 23 -58 -1 -122 -5 -142 -10z"/>
<path d="M6513 10129 c-77 -13 -177 -56 -243 -105 -100 -73 -127 -143 -31 -78
70 47 145 81 199 90 46 7 48 5 29 -34 -38 -77 -3 -198 72 -247 135 -90 310 13
311 183 0 28 4 52 9 52 4 0 28 -15 52 -33 89 -68 116 -74 94 -19 -21 52 -107
129 -190 169 -64 30 -77 33 -160 32 -49 -1 -113 -5 -142 -10z"/>
<path d="M9506 9690 c-3 -18 -6 -52 -6 -76 0 -62 -28 -313 -46 -414 -19 -108
-83 -376 -140 -590 -82 -306 -173 -528 -347 -844 -87 -159 -129 -211 -312
-387 -173 -166 -240 -217 -503 -382 -72 -44 -267 -125 -337 -138 -78 -15 -281
-12 -367 5 -323 63 -917 443 -1136 726 -250 322 -417 740 -657 1640 -63 235
-71 260 -81 236 -4 -10 -2 -55 5 -100 6 -44 16 -124 22 -176 12 -111 74 -405
119 -570 93 -332 223 -668 339 -870 30 -52 64 -113 77 -135 12 -22 28 -59 34
-82 l13 -41 -51 -59 c-123 -143 -171 -257 -256 -603 -102 -415 -103 -418 -150
-448 -23 -14 -57 -38 -76 -53 -19 -14 -72 -39 -116 -53 -45 -15 -111 -45 -147
-66 -36 -22 -98 -53 -138 -69 -90 -36 -173 -74 -394 -181 -564 -274 -680 -327
-1030 -477 -121 -51 -229 -98 -240 -103 -67 -30 -681 -270 -692 -270 -14 0
-205 -101 -338 -178 -136 -80 -265 -226 -434 -490 -262 -410 -459 -886 -853
-2062 -176 -525 -293 -909 -413 -1355 -7 -27 -18 -66 -25 -85 -6 -19 -29 -105
-50 -190 -22 -85 -60 -231 -84 -323 -33 -125 -41 -170 -32 -173 7 -3 50 -4 96
-2 l83 3 62 245 c34 135 79 306 100 380 20 74 57 207 82 295 46 167 81 289
112 390 10 33 38 125 61 205 108 374 281 903 475 1455 133 378 235 628 341
838 69 135 82 158 162 287 133 213 273 388 369 461 32 24 92 73 134 109 70 60
86 68 205 108 529 178 1127 431 1854 785 474 230 588 287 645 322 33 20 92 45
130 57 39 11 82 27 98 35 15 7 27 9 27 5 0 -26 -33 -98 -55 -120 -13 -13 -28
-41 -32 -61 -5 -20 -8 -290 -8 -601 0 -511 2 -574 19 -663 15 -79 24 -103 47
-128 24 -26 34 -30 60 -25 29 6 217 126 329 211 197 150 380 264 595 372 88
45 216 113 285 153 69 40 150 87 182 105 66 39 147 70 204 80 23 3 77 27 120
51 l79 45 40 -17 c22 -10 44 -21 48 -24 4 -4 -13 -24 -39 -45 -104 -85 -221
-221 -265 -306 -10 -21 -21 -56 -25 -78 -5 -34 -4 -41 10 -41 19 0 21 -38 6
-121 -26 -144 -49 -709 -65 -1609 -9 -496 -11 -2970 -2 -3052 l9 -78 53 0 53
0 8 128 c11 171 11 3262 0 3817 -6 308 -5 520 3 709 l12 269 107 120 c73 82
143 148 217 204 61 46 133 105 160 131 28 26 68 59 90 73 60 39 402 377 465
459 30 39 84 108 120 152 194 241 392 512 433 595 35 70 50 142 43 215 -3 35
-3 79 2 98 l8 35 31 -42 c43 -60 87 -200 123 -398 113 -613 177 -899 237
-1059 40 -107 69 -174 90 -207 19 -29 24 -54 28 -130 8 -151 14 -669 9 -669
-3 0 -33 20 -67 43 -202 142 -904 469 -1206 561 -139 43 -352 89 -389 83 -24
-3 -20 -6 33 -30 79 -36 236 -117 254 -131 12 -9 13 -108 7 -661 -6 -623 -19
-1186 -31 -1420 -10 -186 -8 -649 4 -880 13 -240 48 -769 56 -825 2 -19 7 -62
10 -95 17 -207 37 -411 45 -480 5 -44 14 -125 20 -180 16 -143 61 -468 66
-477 3 -5 39 -8 81 -8 l75 0 -6 47 c-3 27 -11 95 -16 153 -5 58 -17 168 -25
245 -8 77 -21 208 -30 290 -8 83 -17 173 -20 200 -7 63 -63 704 -70 805 -3 41
-8 98 -10 125 -2 28 -7 95 -10 150 -4 55 -8 118 -10 140 -9 96 -25 375 -30
545 -3 102 -10 289 -15 415 -5 127 -12 514 -15 860 -5 612 -9 786 -21 948 -3
48 -2 77 5 77 5 0 98 -43 206 -95 108 -52 199 -95 201 -95 7 0 211 -97 449
-215 138 -68 277 -131 310 -140 33 -10 78 -23 100 -30 22 -8 59 -16 82 -20 36
-6 46 -3 67 18 16 16 27 42 32 73 9 65 -2 351 -20 504 -33 269 -43 312 -112
498 -61 162 -184 626 -170 640 2 2 44 -33 93 -78 192 -177 678 -466 1093 -650
63 -28 124 -55 135 -60 20 -9 232 -93 315 -125 219 -83 775 -268 1155 -384 89
-27 113 -40 225 -121 69 -49 159 -113 200 -141 299 -205 530 -468 637 -724 69
-167 178 -551 253 -890 17 -77 40 -180 51 -230 11 -49 22 -101 25 -115 3 -14
8 -34 10 -45 7 -27 69 -348 99 -510 13 -71 42 -224 64 -340 22 -115 43 -226
46 -245 27 -156 146 -727 199 -955 43 -182 129 -499 139 -512 6 -9 42 -13 114
-13 l104 0 -6 38 c-4 20 -25 118 -47 217 -22 99 -44 198 -49 220 -4 22 -27
128 -49 235 -36 170 -54 255 -100 485 -27 139 -59 304 -64 340 -4 22 -15 81
-26 130 -10 50 -31 153 -45 230 -90 488 -235 1099 -351 1485 -90 297 -97 317
-192 514 -177 366 -484 681 -832 854 -107 53 -163 77 -200 86 -14 3 -52 22
-85 42 -100 60 -257 141 -320 164 -33 12 -89 33 -125 46 -36 13 -184 64 -330
114 -682 231 -1031 383 -1620 709 -258 143 -473 279 -527 334 -17 17 -34 77
-77 267 -82 358 -105 420 -197 530 l-51 62 16 91 c9 51 21 125 26 165 10 74
14 82 153 374 150 312 252 684 313 1145 15 113 16 160 8 330 -10 196 -24 272
-38 203z m-3300 -2314 c3 -15 -3 -40 -16 -66 -28 -55 -47 -150 -55 -282 -13
-203 16 -254 360 -625 61 -66 124 -135 142 -154 57 -62 227 -225 283 -271 76
-62 228 -166 328 -223 45 -25 82 -50 82 -54 0 -5 -30 -16 -67 -25 -78 -19
-184 -70 -363 -175 -69 -41 -214 -120 -322 -176 -200 -105 -391 -227 -643
-412 -84 -62 -148 -102 -159 -101 -12 2 -24 15 -30 33 -5 18 -11 256 -13 584
-4 536 -4 555 15 580 36 50 65 116 113 262 88 267 112 378 139 640 24 236 49
307 149 442 19 26 39 47 43 47 4 0 10 -11 14 -24z m2650 -77 c-9 -51 -16 -129
-16 -175 l0 -82 -81 -98 c-99 -119 -146 -183 -184 -249 -15 -27 -67 -99 -115
-160 -47 -60 -115 -150 -151 -198 -62 -87 -105 -142 -221 -284 -31 -38 -133
-148 -226 -243 -170 -172 -171 -173 -194 -157 -13 9 -58 35 -102 58 -73 38
-142 89 -290 216 -34 29 -95 78 -136 109 -104 79 -124 96 -310 274 -91 86
-232 216 -315 289 -194 171 -191 166 -168 216 24 57 24 323 0 454 -10 52 -15
96 -12 99 3 3 24 -13 48 -35 131 -129 446 -349 641 -448 244 -125 434 -171
667 -161 240 10 446 84 699 252 156 103 230 165 362 303 62 65 115 117 116
115 2 -1 -3 -44 -12 -95z m-2623 -161 c4 -46 7 -119 7 -163 0 -74 -1 -78 -17
-62 -12 12 -18 40 -21 106 -5 96 4 201 17 201 5 0 11 -37 14 -82z"/>
<path d="M7785 8646 c-42 -19 -85 -63 -85 -86 0 -22 29 -27 47 -9 7 7 56 16
110 20 120 10 143 15 143 33 0 8 -12 24 -26 35 -21 17 -41 21 -93 21 -36 -1
-79 -7 -96 -14z"/>
<path d="M7458 8169 c-30 -19 49 -49 128 -49 70 0 113 19 102 46 -5 9 -216 12
-230 3z"/>
<path d="M6977 8003 c-19 -19 21 -61 98 -102 l50 -26 350 3 c250 2 370 7 420
17 39 8 99 17 135 20 82 8 146 30 165 58 8 12 15 25 15 29 0 11 -44 10 -76 -3
-16 -5 -64 -15 -109 -20 -44 -5 -107 -16 -140 -24 -58 -13 -356 -27 -635 -29
-133 -1 -141 1 -241 67 -14 9 -29 14 -32 10z"/>
<path d="M7865 7664 c-38 -9 -134 -14 -257 -15 -184 -2 -224 -7 -181 -23 43
-17 285 -28 359 -17 76 11 174 46 174 62 0 11 -20 10 -95 -7z"/>
<path d="M7740 5403 c-8 -3 -32 -16 -52 -30 -67 -45 -89 -162 -42 -227 29 -40
97 -70 145 -63 76 10 103 62 97 182 -4 81 -25 117 -76 130 -15 3 -34 8 -42 10
-8 2 -22 1 -30 -2z m48 -105 c30 -30 6 -128 -32 -128 -17 0 -66 38 -66 51 0
11 69 89 79 89 4 0 12 -5 19 -12z"/>
<path d="M12366 3743 c-3 -10 -10 -92 -16 -183 -5 -91 -19 -246 -30 -345 -26
-247 -69 -649 -76 -710 -2 -27 -9 -88 -14 -135 -10 -83 -33 -349 -45 -520 -4
-47 -8 -101 -10 -120 -2 -19 -13 -159 -25 -310 -11 -151 -23 -282 -25 -290 -3
-8 -14 -168 -25 -355 -11 -187 -23 -375 -26 -418 l-7 -77 91 0 c50 0 93 3 95
8 3 4 8 57 11 117 27 450 33 487 185 1065 124 468 221 809 248 865 l23 50 -5
-80 c-5 -83 -68 -507 -129 -870 -40 -234 -54 -366 -38 -350 15 15 37 101 76
300 117 597 178 1078 150 1183 -10 38 -34 25 -59 -33 -60 -135 -258 -818 -361
-1243 -20 -84 -39 -150 -42 -147 -7 7 -5 104 7 340 17 323 21 384 36 605 18
257 42 664 50 835 3 72 8 177 11 235 6 107 -11 556 -22 584 -8 21 -21 20 -28
-1z"/>
<path d="M7693 3609 c-72 -17 -136 -100 -137 -180 -1 -39 4 -53 28 -78 34 -35
102 -61 160 -61 99 1 175 90 161 190 -8 57 -31 91 -77 113 -48 22 -87 26 -135
16z m88 -99 c39 -21 13 -93 -38 -103 -34 -6 -73 8 -73 27 0 21 59 86 77 86 8
0 23 -5 34 -10z"/>
<path d="M2775 3170 c4 -25 13 -88 22 -140 8 -52 23 -176 33 -275 20 -191 51
-484 130 -1210 27 -247 61 -560 75 -695 14 -135 35 -317 45 -404 11 -88 20
-161 20 -163 0 -2 32 -3 70 -3 66 0 70 1 70 23 0 20 -102 854 -114 932 -6 34
-37 297 -67 550 -11 94 -26 211 -34 260 -8 50 -30 191 -50 315 -35 224 -42
254 -110 550 -38 164 -71 278 -87 295 -5 6 -7 -7 -3 -35z"/>
<path d="M2576 1878 c12 -68 40 -204 62 -303 22 -99 52 -238 67 -310 14 -71
35 -166 45 -210 11 -44 49 -208 86 -365 36 -157 73 -313 81 -347 14 -62 15
-63 49 -63 24 0 34 5 34 15 0 9 -21 100 -46 203 -25 103 -70 293 -100 422 -69
298 -163 657 -241 925 -20 66 -38 128 -40 138 -3 9 -9 17 -12 17 -4 0 2 -55
15 -122z"/>
<path d="M7598 1213 c-24 -26 -42 -112 -34 -158 15 -78 109 -135 198 -120 59
10 121 74 144 148 16 53 17 61 3 85 -20 37 -73 53 -194 59 -90 5 -102 4 -117
-14z m216 -99 c8 -21 -54 -84 -83 -84 -32 0 -71 22 -71 40 0 25 21 39 71 49
66 13 76 12 83 -5z"/>
</g>
</svg>
